<svg width="145" height="95" viewBox="0 0 145 95" fill="none" xmlns="http://www.w3.org/2000/svg">
<g clip-path="url(#clip0)">
<path d="M48.9078 94.7907H6.33828C6.33828 94.7907 5.47538 82.0433 10.5808 81.8984C15.6863 81.7536 15.1111 87.5479 21.5109 79.5807C27.9107 71.6136 35.6767 72.0482 36.6835 76.756C37.6902 81.4639 34.7419 85.2301 40.135 84.0713C45.5281 82.9124 53.2942 85.9544 48.9078 94.7907Z" fill="#047B40"/>
<path d="M26.9034 94.7937L26.7598 94.7879C27.0948 86.3951 28.8399 81.0026 30.2449 77.9569C31.7703 74.6498 33.2403 73.311 33.255 73.2978L33.3506 73.4061C33.3361 73.4191 31.8833 74.7446 30.37 78.0293C28.9728 81.0622 27.2373 86.4325 26.9034 94.7937Z" fill="#F2F2F2"/>
<path d="M42.3099 94.8111L42.1719 94.7706C43.8343 89.0231 47.7492 85.3944 47.7886 85.3583L47.8852 85.4656C47.8461 85.5013 43.9606 89.1044 42.3099 94.8111Z" fill="#F2F2F2"/>
<path d="M13.0463 94.8008L12.9038 94.7809C13.4678 90.6835 12.449 87.5046 11.4949 85.5594C10.4619 83.4531 9.28328 82.3028 9.27148 82.2914L9.37099 82.1868C9.38297 82.1983 10.5798 83.3664 11.6239 85.4952C12.5868 87.4587 13.6153 90.667 13.0463 94.8008Z" fill="#F2F2F2"/>
<path d="M54.6809 94.9847H1.74234L1.73012 94.804C1.69969 94.3547 1.02437 83.7557 4.43392 79.9739C5.19613 79.1285 6.11427 78.6848 7.1628 78.6551C9.38527 78.5914 10.7819 79.4299 11.9084 80.1029C14.0317 81.3716 15.4344 82.2098 20.5343 75.8608C26.0592 68.9827 32.0202 67.503 35.4471 68.3258C37.6612 68.8576 39.1872 70.3604 39.6339 72.449C40.0568 74.4267 39.9221 76.285 39.8139 77.7781C39.698 79.3758 39.6065 80.6377 40.258 81.2095C40.8018 81.6867 41.8872 81.7301 43.6737 81.3461C47.3075 80.5653 52.3778 81.2334 54.9228 84.5454C56.292 86.3272 57.3706 89.5662 54.734 94.8776L54.6809 94.9847ZM2.10362 94.5971H54.4426C56.4074 90.5822 56.4687 87.1904 54.6185 84.7826C52.2839 81.7443 47.3859 80.9446 43.754 81.7251C41.813 82.1423 40.6565 82.0734 40.0052 81.5017C39.2087 80.8027 39.3064 79.4555 39.43 77.7499C39.5366 76.2815 39.669 74.4539 39.2578 72.5305C38.8436 70.5937 37.4221 69.1986 35.3579 68.7029C32.0404 67.9056 26.2458 69.3667 20.8334 76.1045C15.5245 82.7138 13.9252 81.7585 11.7122 80.4362C10.5718 79.755 9.27697 78.9823 7.17371 79.0424C6.23377 79.0691 5.40787 79.4702 4.71875 80.2345C1.65441 83.6333 2.02856 93.1642 2.10362 94.5971Z" fill="#CFCCE0"/>
<path d="M106.993 67.6713L91.5918 64.974C94.3447 59.223 95.6026 53.5409 94.5278 47.9662L109.929 50.6635C107.534 55.9901 106.523 61.8429 106.993 67.6713Z" fill="#F2F2F2"/>
<path d="M105.69 53.0974L97.7109 51.7L97.6464 52.0738L105.625 53.4712L105.69 53.0974Z" fill="#3F3D56"/>
<path d="M105.428 54.5926L97.4492 53.1951L97.3847 53.5689L105.364 54.9664L105.428 54.5926Z" fill="#3F3D56"/>
<path d="M105.166 56.0883L97.1875 54.6909L97.123 55.0647L105.102 56.4621L105.166 56.0883Z" fill="#3F3D56"/>
<path d="M104.914 57.5829L96.9355 56.1856L96.871 56.5594L104.85 57.9567L104.914 57.5829Z" fill="#3F3D56"/>
<path d="M104.653 59.0782L96.6738 57.6809L96.6093 58.0547L104.588 59.452L104.653 59.0782Z" fill="#3F3D56"/>
<path d="M104.397 60.5734L96.418 59.176L96.3534 59.5498L104.332 60.9472L104.397 60.5734Z" fill="#3F3D56"/>
<path d="M104.135 62.0685L96.1562 60.671L96.0917 61.0448L104.071 62.4423L104.135 62.0685Z" fill="#3F3D56"/>
<path d="M103.883 63.5637L95.9043 62.1663L95.8398 62.5401L103.819 63.9375L103.883 63.5637Z" fill="#3F3D56"/>
<path d="M113.854 73.134L98.4531 70.4367C101.206 64.6858 102.464 59.0036 101.389 53.4289L116.79 56.1262C114.395 61.4528 113.385 67.3057 113.854 73.134Z" fill="#F2F2F2"/>
<path d="M112.549 58.5602L104.57 57.1628L104.506 57.5366L112.485 58.934L112.549 58.5602Z" fill="#3F3D56"/>
<path d="M112.29 60.0553L104.311 58.658L104.246 59.0318L112.225 60.4291L112.29 60.0553Z" fill="#3F3D56"/>
<path d="M112.026 61.5513L104.047 60.1538L103.982 60.5276L111.961 61.9251L112.026 61.5513Z" fill="#3F3D56"/>
<path d="M111.77 63.0457L103.791 61.6483L103.726 62.0221L111.706 63.4195L111.77 63.0457Z" fill="#3F3D56"/>
<path d="M111.514 64.541L103.535 63.1436L103.471 63.5174L111.449 64.9148L111.514 64.541Z" fill="#3F3D56"/>
<path d="M111.256 66.0362L103.277 64.6387L103.213 65.0125L111.192 66.41L111.256 66.0362Z" fill="#3F3D56"/>
<path d="M110.994 67.5313L103.016 66.1339L102.951 66.5077L110.93 67.9051L110.994 67.5313Z" fill="#3F3D56"/>
<path d="M110.739 69.0265L102.76 67.6292L102.695 68.003L110.674 69.4003L110.739 69.0265Z" fill="#3F3D56"/>
<path d="M118.05 94.7766H90.5787L90.5734 94.6216L89.2617 56.8357H119.367L118.05 94.7766ZM90.8868 94.4553H117.742L119.037 57.157H89.592L90.8868 94.4553Z" fill="#3F3D56"/>
<path d="M116.547 92.746H92.0843L90.9082 58.8664H117.723L116.547 92.746Z" fill="#615E5E"/>
<g opacity="0.2">
<path opacity="0.2" d="M97.1324 63.8363H95.043V89.8806H97.1324V63.8363Z" fill="white"/>
<path opacity="0.2" d="M105.361 63.8363H103.271V89.8806H105.361V63.8363Z" fill="white"/>
<path opacity="0.2" d="M113.589 63.8363H111.5V89.8806H113.589V63.8363Z" fill="white"/>
</g>
<path d="M104.782 42.1103L101.99 46.5575L135.988 68.2067L138.779 63.7594L104.782 42.1103Z" fill="#615E5E"/>
<path d="M125.24 47.4275C124.248 46.7953 123.097 46.4629 121.923 46.4698C120.749 46.4768 119.602 46.8227 118.618 47.4667C117.633 48.1106 116.853 49.0255 116.369 50.1028C115.886 51.18 115.719 52.3744 115.889 53.5442L117.515 54.5799C117.106 53.6236 117.012 52.5606 117.247 51.5464C117.481 50.5323 118.031 49.6204 118.817 48.9441C119.604 48.2679 120.584 47.863 121.615 47.7885C122.646 47.7141 123.674 47.9741 124.547 48.5305C125.421 49.0869 126.095 49.9105 126.471 50.8806C126.846 51.8507 126.903 52.9164 126.634 53.9217C126.365 54.927 125.783 55.819 124.974 56.4671C124.165 57.1153 123.171 57.4855 122.138 57.5236L123.764 58.5593C124.887 58.2123 125.886 57.5483 126.645 56.6462C127.404 55.7441 127.89 54.6417 128.045 53.4698C128.2 52.2979 128.018 51.1057 127.521 50.0347C127.024 48.9637 126.232 48.0588 125.24 47.4275V47.4275Z" fill="#3F3D56"/>
<path d="M145 94.5549H0V94.8762H145V94.5549Z" fill="#3F3D56"/>
<path d="M76.5645 39.9267C76.5645 39.9267 82.7856 44.5862 80.2334 45.3895C77.6811 46.1929 74.4908 42.6581 74.6503 41.6941C74.8098 40.7301 76.5645 39.9267 76.5645 39.9267Z" fill="#FFB8B8"/>
<path d="M71.1446 33.9819L77.5251 39.9267L74.9729 42.6582L70.666 39.4447L71.1446 33.9819Z" fill="#047B40"/>
<path d="M85.4245 58.3943L72.2695 49.8885C77.0224 45.6642 80.3709 40.9191 81.5281 35.3611L94.6831 43.8669C90.4234 47.8398 87.2372 52.8391 85.4245 58.3943Z" fill="#F4CE38"/>
<path d="M89.8308 44.4513L83.0156 40.0447L82.8121 40.3639L89.6273 44.7706L89.8308 44.4513Z" fill="#3F3D56"/>
<path d="M89.0184 45.7286L82.2031 41.3219L81.9996 41.6412L88.8149 46.0479L89.0184 45.7286Z" fill="#3F3D56"/>
<path d="M88.202 47.0056L81.3867 42.5989L81.1832 42.9182L87.9985 47.3248L88.202 47.0056Z" fill="#3F3D56"/>
<path d="M87.3895 48.2826L80.5742 43.8761L80.3707 44.1953L87.186 48.6019L87.3895 48.2826Z" fill="#3F3D56"/>
<path d="M86.577 49.5598L79.7617 45.1532L79.5582 45.4725L86.3735 49.8791L86.577 49.5598Z" fill="#3F3D56"/>
<path d="M85.7643 50.8371L78.9492 46.4304L78.7457 46.7497L85.5608 51.1564L85.7643 50.8371Z" fill="#3F3D56"/>
<path d="M84.9481 52.1141L78.1328 47.7074L77.9293 48.0267L84.7446 52.4334L84.9481 52.1141Z" fill="#3F3D56"/>
<path d="M84.1354 53.3913L77.3203 48.9847L77.1168 49.304L83.9319 53.7105L84.1354 53.3913Z" fill="#3F3D56"/>
<path d="M48.3586 78.7956L45.9375 83.9262L52.7104 85.5587L52.5217 80.6127L48.3586 78.7956Z" fill="#FFB8B8"/>
<path d="M72.5801 85.718L73.3777 91.3415L79.9178 88.9315L77.0465 84.9147L72.5801 85.718Z" fill="#FFB8B8"/>
<path d="M58.0949 32.7618C58.0949 32.7618 57.0926 39.2257 57.3654 42.2998C57.6381 45.374 56.5628 58.3442 56.5628 58.3442C56.5628 58.3442 51.7529 63.6141 50.6611 69.6326C49.9434 73.4246 48.7943 77.1207 47.2363 80.6477L52.9037 82.5057L64.1346 61.0888C64.1346 61.0888 72.1889 43.3337 71.3885 41.6423C70.5881 39.9508 69.3332 33.1358 69.3332 33.1358L58.0949 32.7618Z" fill="#E1FFED"/>
<path d="M47.3961 82.5858C47.3961 82.5858 47.3893 79.6892 46.3747 80.9394C45.36 82.1896 42.0476 84.6039 43.9983 86.2926C45.9489 87.9813 57.3408 97.1337 57.9538 94.4585C58.2942 92.9733 52.6126 82.9483 52.6126 82.9483C52.6126 82.9483 50.7154 83.068 50.5838 83.5585C50.4523 84.049 47.3961 82.5858 47.3961 82.5858Z" fill="#2F2E41"/>
<path d="M67.6331 6.50722L63.3262 11.488L67.6331 15.9868L71.621 9.88131L67.6331 6.50722Z" fill="#FFB8B8"/>
<path d="M74.973 6.82858C74.9735 7.94388 74.5477 9.01656 73.7839 9.82406C73.0202 10.6316 71.9771 11.1119 70.8711 11.1654C69.7651 11.219 68.681 10.8416 67.8439 10.1116C67.0068 9.38153 66.4808 8.35493 66.3752 7.24472C66.2695 6.13451 66.5922 5.02593 67.2763 4.14898C67.9604 3.27203 68.9535 2.69402 70.0494 2.53487C71.1454 2.37573 72.2601 2.64766 73.1623 3.29426C74.0645 3.94086 74.6849 4.91248 74.8949 6.00755C74.9468 6.27811 74.9729 6.55302 74.973 6.82858Z" fill="#FFB8B8"/>
<path d="M67.8265 3.54413C69.3212 2.84445 71.0828 2.9338 72.6593 3.41799C73.5537 3.69267 74.4365 4.10674 75.0625 4.80635C75.6884 5.50596 76.0105 6.53656 75.685 7.41942L74.3814 6.42645L74.2619 7.30165C73.4015 5.94968 71.7673 5.36228 70.2516 4.8641C69.7775 4.70829 69.1483 4.60191 68.8749 5.02198C68.7597 5.19901 68.7466 5.43006 68.6241 5.60203C68.3944 5.9243 67.9144 5.89592 67.5628 6.07467C67.2336 6.24205 67.0342 6.58381 66.8567 6.90939C66.6792 7.23497 66.7579 7.69091 66.4363 7.87283C65.1469 8.60237 65.907 5.79302 66.1173 5.3021C66.5326 4.33259 66.8786 3.98785 67.8265 3.54413Z" fill="#2F2E41"/>
<path d="M55.4336 41.9351C55.4336 41.9351 58.1454 47.88 60.0596 50.29C61.9737 52.7001 68.1949 64.1077 68.1949 64.1077C68.1949 64.1077 67.0783 71.1772 69.471 76.8007C70.9538 80.3604 72.0243 84.0804 72.6613 87.887L78.4039 86.2803L76.0112 62.1797C76.0112 62.1797 72.9804 42.8991 71.3852 41.9351C69.79 40.9711 65.0046 35.9903 65.0046 35.9903L55.4336 41.9351Z" fill="#E1FFED"/>
<path d="M68.7534 15.6654C68.7534 15.6654 66.0416 8.43523 62.3727 10.6846C58.7039 12.934 55.8326 33.0179 55.8326 33.0179C55.8326 33.0179 52.4827 42.1761 55.8326 43.1401C59.1824 44.1042 61.8942 45.3895 62.3727 43.6221C62.8513 41.8548 62.5323 38.802 63.3298 40.4087C64.1274 42.0154 63.8084 43.9435 65.4036 43.9435C66.9987 43.9435 73.2199 43.1401 73.0603 42.0154C72.9008 40.8907 68.7534 15.6654 68.7534 15.6654Z" fill="#047B40"/>
<path d="M55.5112 44.1042C55.5112 44.1042 53.4375 50.3703 56.3088 50.3703C59.1801 50.3703 58.7651 44.044 58.7651 44.044L55.5112 44.1042Z" fill="#FFB8B8"/>
<path d="M73.8552 89.4134C73.8552 89.4134 72.2601 87.0033 72.1006 88.6101C71.9411 90.2168 70.5054 94.0729 73.0577 94.3943C75.6099 94.7156 90.1258 96.001 89.1687 93.4302C88.6373 92.003 78.4014 86.8114 78.4014 86.8114C78.4014 86.8114 76.886 87.9674 77.0455 88.4494C77.205 88.9314 73.8552 89.4134 73.8552 89.4134Z" fill="#2F2E41"/>
<path d="M77.7644 7.87288C77.7644 7.87288 77.0083 8.52681 76.0273 7.23341C75.7703 6.88147 75.5506 6.50345 75.3717 6.1055C74.5822 5.3153 73.5236 4.85744 72.4111 4.82495C72.3361 4.82174 72.2595 4.82014 72.1814 4.82013C70.1077 4.82013 69.6291 3.37409 69.6291 3.37409L66.2793 4.49879C66.2793 4.49879 66.7578 0 71.3838 0C76.0098 0 76.1693 3.85611 76.1693 3.85611C76.1693 3.85611 79.8381 5.30215 77.7644 7.87288Z" fill="#047B40"/>
<path opacity="0.2" d="M76.0303 7.23332C75.7734 6.88139 75.5537 6.50337 75.3747 6.10541C74.5852 5.31521 73.5266 4.85736 72.4141 4.82487C73.5801 4.45693 75.6076 4.02955 76.4914 5.14139C77.3049 6.16487 76.6285 6.86218 76.0303 7.23332Z" fill="black"/>
<path d="M62.5286 11.9699C62.5286 11.9699 58.2217 11.1665 57.1051 15.0226C55.9884 18.8787 53.5957 30.2864 53.5957 30.2864L55.0313 42.0154L54.8718 44.9075H59.4978V41.8547C59.4978 41.5334 60.1359 29.001 60.1359 29.001L65.3999 16.9507C65.3999 16.9507 66.5165 13.0946 62.5286 11.9699Z" fill="#047B40"/>
<path opacity="0.2" d="M65.4783 18.6378L60.2142 29.0815L59.5684 44.0441L61.3309 28.9208L65.4783 18.6378Z" fill="black"/>
<path opacity="0.2" d="M71.8633 34.6544L73.0587 40.8254L72.461 35.2113L71.8633 34.6544Z" fill="black"/>
<path opacity="0.2" d="M58.3027 49.0849L65.1619 58.8859L64.4441 60.3319L58.3027 49.0849Z" fill="black"/>
</g>
<defs>
<clipPath id="clip0">
<rect width="145" height="95" fill="white"/>
</clipPath>
</defs>
</svg>
